<mxfile host="app.diagrams.net" agent="Mozilla/5.0 (X11; Linux x86_64; rv:128.0) Gecko/20100101 Firefox/128.0" version="26.0.11">
  <diagram name="第 1 页" id="hu_KiB962PMkwB_9pUWr">
    <mxGraphModel dx="1234" dy="411" grid="1" gridSize="10" guides="1" tooltips="1" connect="1" arrows="1" fold="1" page="1" pageScale="1" pageWidth="827" pageHeight="1169" math="0" shadow="0">
      <root>
        <mxCell id="0" />
        <mxCell id="1" parent="0" />
        <mxCell id="M1whlqGb-rU47Xm5OJvP-26" value="" style="rounded=1;whiteSpace=wrap;html=1;fillColor=none;" parent="1" vertex="1">
          <mxGeometry x="110" y="310" width="120" height="240" as="geometry" />
        </mxCell>
        <mxCell id="M1whlqGb-rU47Xm5OJvP-1" value="" style="shape=image;imageAspect=0;aspect=fixed;verticalLabelPosition=bottom;verticalAlign=top;image=data:image/svg+xml,PHN2ZyB4bWxucz0iaHR0cDovL3d3dy53My5vcmcvMjAwMC9zdmciIHZpZXdCb3g9IjAgMCA2NCA2NCI+PGcgZGF0YS1uYW1lPSJMYXllciAxNSIgaWQ9IkxheWVyXzE1Ij48cGF0aCBkPSJNNTksMTZIMTJWMTNhMSwxLDAsMCwwLTEtMUg1YTEsMSwwLDAsMCwwLDJoNXY0SDdhMSwxLDAsMCwwLTEsMXY4YTEsMSwwLDAsMCwxLDFoM3YySDdhMSwxLDAsMCwwLTEsMXY4YTEsMSwwLDAsMCwxLDFoM3Y3YTEsMSwwLDAsMCwyLDBWNDJoNXYzYTEsMSwwLDAsMCwxLDFoOGExLDEsMCwwLDAsMS0xVjQyaDJ2M2ExLDEsMCwwLDAsMSwxSDQ2YTEsMSwwLDAsMCwxLTFWNDJINTlhMSwxLDAsMCwwLDEtMVYxN0ExLDEsMCwwLDAsNTksMTZaTTgsMjZWMjBoMnY2Wk04LDM4VjMyaDJ2NlptNCwxVjE4aDJWNDBIMTJabTcsM2gydjJIMTlabTYsMkgyM1Y0MmgyWm02LTJoMnYySDMxWm00LDBoMnYySDM1Wm00LDBoMnYySDM5Wm02LDJINDNWNDJoMlptMTMtNEgxNlYxOEg1OFoiLz48cGF0aCBkPSJNMjcsMzhhOC45MSw4LjkxLDAsMCwwLDUuNjQtMmg4LjcyQTguOTEsOC45MSwwLDAsMCw0NywzOGE5LDksMCwwLDAsMC0xOCw4LjkxLDguOTEsMCwwLDAtNS42NCwySDMyLjY0QTguOTEsOC45MSwwLDAsMCwyNywyMGE5LDksMCwwLDAsMCwxOFpNMzguMDYsMjhIMzUuOTRhOSw5LDAsMCwwLTEuNDYtNGg1QTksOSwwLDAsMCwzOC4wNiwyOFptLTIuMTIsMmgyLjEyYTksOSwwLDAsMCwxLjQ2LDRoLTVBOSw5LDAsMCwwLDM1Ljk0LDMwWk01NCwyOWE3LDcsMCwxLDEtNy03QTcsNywwLDAsMSw1NCwyOVpNMjcsMjJhNyw3LDAsMSwxLTcsN0E3LDcsMCwwLDEsMjcsMjJaIi8+PHBhdGggZD0iTTI0LjMsMzAuMjlsLTEuNTUsMS41NGExLDEsMCwwLDAsMCwxLjQyQTYsNiwwLDAsMCwyNywzNWExLDEsMCwwLDAsMS0xVjMxLjgybC4yOS0uMTIsMS41NCwxLjU1YTEsMSwwLDAsMCwxLjQyLDBBNiw2LDAsMCwwLDMzLDI5YTEsMSwwLDAsMC0xLTFIMjkuODJsLS4xMi0uMjksMS41NS0xLjU0YTEsMSwwLDAsMCwwLTEuNDJBNiw2LDAsMCwwLDI3LDIzYTEsMSwwLDAsMC0xLDF2Mi4xOGwtLjI5LjEyLTEuNTQtMS41NWExLDEsMCwwLDAtMS40MiwwQTYsNiwwLDAsMCwyMSwyOWExLDEsMCwwLDAsMSwxaDIuMThaTTI3LDI4YTEsMSwwLDEsMS0xLDFBMSwxLDAsMCwxLDI3LDI4Wm0tMiw0LjQ1Ljc0LS43NS4yOS4xMnYxQTMuODUsMy44NSwwLDAsMSwyNSwzMi40NVpNMzAuNDUsMzFsLS43NS0uNzQuMTItLjI5aDEuMDZBNC4yNCw0LjI0LDAsMCwxLDMwLjQ1LDMxWk0yOSwyNS41NWwtLjc0Ljc1TDI4LDI2LjE4VjI1LjEzQTMuODUsMy44NSwwLDAsMSwyOSwyNS41NVpNMjMuNTUsMjdsLjc1Ljc0LS4xMi4yOUgyMy4xM0EzLjg1LDMuODUsMCwwLDEsMjMuNTUsMjdaIi8+PHBhdGggZD0iTTQyLDMwaDIuMThsLjEyLjI5LTEuNTUsMS41NGExLDEsMCwwLDAsMCwxLjQyQTYsNiwwLDAsMCw0NywzNWExLDEsMCwwLDAsMS0xVjMxLjgybC4yOS0uMTIsMS41NCwxLjU1YTEsMSwwLDAsMCwxLjQyLDBBNiw2LDAsMCwwLDUzLDI5YTEsMSwwLDAsMC0xLTFINDkuODJsLS4xMi0uMjksMS41NS0xLjU0YTEsMSwwLDAsMCwwLTEuNDJBNiw2LDAsMCwwLDQ3LDIzYTEsMSwwLDAsMC0xLDF2Mi4xOGwtLjI5LjEyLTEuNTQtMS41NWExLDEsMCwwLDAtMS40MiwwQTYsNiwwLDAsMCw0MSwyOSwxLDEsMCwwLDAsNDIsMzBabTUtMmExLDEsMCwxLDEtMSwxQTEsMSwwLDAsMSw0NywyOFptLTIsNC40NS43NC0uNzUuMjkuMTJ2MUEzLjg1LDMuODUsMCwwLDEsNDUsMzIuNDVaTTUwLjQ1LDMxbC0uNzUtLjc0LjEyLS4yOWgxLjA2QTQuMjQsNC4yNCwwLDAsMSw1MC40NSwzMVpNNDksMjUuNTVsLS43NC43NUw0OCwyNi4xOFYyNS4xM0EzLjg1LDMuODUsMCwwLDEsNDksMjUuNTVaTTQzLjU1LDI3bC43NS43NC0uMTIuMjloLTFBMy44NSwzLjg1LDAsMCwxLDQzLjU1LDI3WiIvPjwvZz48L3N2Zz4=;" parent="1" vertex="1">
          <mxGeometry x="120" y="440" width="100" height="100" as="geometry" />
        </mxCell>
        <mxCell id="M1whlqGb-rU47Xm5OJvP-3" value="GPU 0" style="text;html=1;strokeColor=none;fillColor=none;align=center;verticalAlign=middle;whiteSpace=wrap;rounded=0;fontStyle=1;fontSize=16;" parent="1" vertex="1">
          <mxGeometry x="140" y="519" width="60" height="30" as="geometry" />
        </mxCell>
        <mxCell id="M1whlqGb-rU47Xm5OJvP-28" value="&lt;b&gt;Model Copy&lt;br&gt;&lt;/b&gt;" style="text;html=1;strokeColor=none;fillColor=none;align=center;verticalAlign=middle;whiteSpace=wrap;rounded=0;" parent="1" vertex="1">
          <mxGeometry x="135" y="410" width="70" height="30" as="geometry" />
        </mxCell>
        <mxCell id="M1whlqGb-rU47Xm5OJvP-29" value="" style="rounded=1;whiteSpace=wrap;html=1;fillColor=none;" parent="1" vertex="1">
          <mxGeometry x="257" y="310" width="120" height="240" as="geometry" />
        </mxCell>
        <mxCell id="M1whlqGb-rU47Xm5OJvP-30" value="" style="shape=image;imageAspect=0;aspect=fixed;verticalLabelPosition=bottom;verticalAlign=top;image=data:image/svg+xml,PHN2ZyB4bWxucz0iaHR0cDovL3d3dy53My5vcmcvMjAwMC9zdmciIHZpZXdCb3g9IjAgMCA2NCA2NCI+PGcgZGF0YS1uYW1lPSJMYXllciAxNSIgaWQ9IkxheWVyXzE1Ij48cGF0aCBkPSJNNTksMTZIMTJWMTNhMSwxLDAsMCwwLTEtMUg1YTEsMSwwLDAsMCwwLDJoNXY0SDdhMSwxLDAsMCwwLTEsMXY4YTEsMSwwLDAsMCwxLDFoM3YySDdhMSwxLDAsMCwwLTEsMXY4YTEsMSwwLDAsMCwxLDFoM3Y3YTEsMSwwLDAsMCwyLDBWNDJoNXYzYTEsMSwwLDAsMCwxLDFoOGExLDEsMCwwLDAsMS0xVjQyaDJ2M2ExLDEsMCwwLDAsMSwxSDQ2YTEsMSwwLDAsMCwxLTFWNDJINTlhMSwxLDAsMCwwLDEtMVYxN0ExLDEsMCwwLDAsNTksMTZaTTgsMjZWMjBoMnY2Wk04LDM4VjMyaDJ2NlptNCwxVjE4aDJWNDBIMTJabTcsM2gydjJIMTlabTYsMkgyM1Y0MmgyWm02LTJoMnYySDMxWm00LDBoMnYySDM1Wm00LDBoMnYySDM5Wm02LDJINDNWNDJoMlptMTMtNEgxNlYxOEg1OFoiLz48cGF0aCBkPSJNMjcsMzhhOC45MSw4LjkxLDAsMCwwLDUuNjQtMmg4LjcyQTguOTEsOC45MSwwLDAsMCw0NywzOGE5LDksMCwwLDAsMC0xOCw4LjkxLDguOTEsMCwwLDAtNS42NCwySDMyLjY0QTguOTEsOC45MSwwLDAsMCwyNywyMGE5LDksMCwwLDAsMCwxOFpNMzguMDYsMjhIMzUuOTRhOSw5LDAsMCwwLTEuNDYtNGg1QTksOSwwLDAsMCwzOC4wNiwyOFptLTIuMTIsMmgyLjEyYTksOSwwLDAsMCwxLjQ2LDRoLTVBOSw5LDAsMCwwLDM1Ljk0LDMwWk01NCwyOWE3LDcsMCwxLDEtNy03QTcsNywwLDAsMSw1NCwyOVpNMjcsMjJhNyw3LDAsMSwxLTcsN0E3LDcsMCwwLDEsMjcsMjJaIi8+PHBhdGggZD0iTTI0LjMsMzAuMjlsLTEuNTUsMS41NGExLDEsMCwwLDAsMCwxLjQyQTYsNiwwLDAsMCwyNywzNWExLDEsMCwwLDAsMS0xVjMxLjgybC4yOS0uMTIsMS41NCwxLjU1YTEsMSwwLDAsMCwxLjQyLDBBNiw2LDAsMCwwLDMzLDI5YTEsMSwwLDAsMC0xLTFIMjkuODJsLS4xMi0uMjksMS41NS0xLjU0YTEsMSwwLDAsMCwwLTEuNDJBNiw2LDAsMCwwLDI3LDIzYTEsMSwwLDAsMC0xLDF2Mi4xOGwtLjI5LjEyLTEuNTQtMS41NWExLDEsMCwwLDAtMS40MiwwQTYsNiwwLDAsMCwyMSwyOWExLDEsMCwwLDAsMSwxaDIuMThaTTI3LDI4YTEsMSwwLDEsMS0xLDFBMSwxLDAsMCwxLDI3LDI4Wm0tMiw0LjQ1Ljc0LS43NS4yOS4xMnYxQTMuODUsMy44NSwwLDAsMSwyNSwzMi40NVpNMzAuNDUsMzFsLS43NS0uNzQuMTItLjI5aDEuMDZBNC4yNCw0LjI0LDAsMCwxLDMwLjQ1LDMxWk0yOSwyNS41NWwtLjc0Ljc1TDI4LDI2LjE4VjI1LjEzQTMuODUsMy44NSwwLDAsMSwyOSwyNS41NVpNMjMuNTUsMjdsLjc1Ljc0LS4xMi4yOUgyMy4xM0EzLjg1LDMuODUsMCwwLDEsMjMuNTUsMjdaIi8+PHBhdGggZD0iTTQyLDMwaDIuMThsLjEyLjI5LTEuNTUsMS41NGExLDEsMCwwLDAsMCwxLjQyQTYsNiwwLDAsMCw0NywzNWExLDEsMCwwLDAsMS0xVjMxLjgybC4yOS0uMTIsMS41NCwxLjU1YTEsMSwwLDAsMCwxLjQyLDBBNiw2LDAsMCwwLDUzLDI5YTEsMSwwLDAsMC0xLTFINDkuODJsLS4xMi0uMjksMS41NS0xLjU0YTEsMSwwLDAsMCwwLTEuNDJBNiw2LDAsMCwwLDQ3LDIzYTEsMSwwLDAsMC0xLDF2Mi4xOGwtLjI5LjEyLTEuNTQtMS41NWExLDEsMCwwLDAtMS40MiwwQTYsNiwwLDAsMCw0MSwyOSwxLDEsMCwwLDAsNDIsMzBabTUtMmExLDEsMCwxLDEtMSwxQTEsMSwwLDAsMSw0NywyOFptLTIsNC40NS43NC0uNzUuMjkuMTJ2MUEzLjg1LDMuODUsMCwwLDEsNDUsMzIuNDVaTTUwLjQ1LDMxbC0uNzUtLjc0LjEyLS4yOWgxLjA2QTQuMjQsNC4yNCwwLDAsMSw1MC40NSwzMVpNNDksMjUuNTVsLS43NC43NUw0OCwyNi4xOFYyNS4xM0EzLjg1LDMuODUsMCwwLDEsNDksMjUuNTVaTTQzLjU1LDI3bC43NS43NC0uMTIuMjloLTFBMy44NSwzLjg1LDAsMCwxLDQzLjU1LDI3WiIvPjwvZz48L3N2Zz4=;" parent="1" vertex="1">
          <mxGeometry x="267" y="440" width="100" height="100" as="geometry" />
        </mxCell>
        <mxCell id="M1whlqGb-rU47Xm5OJvP-31" value="GPU 1" style="text;html=1;strokeColor=none;fillColor=none;align=center;verticalAlign=middle;whiteSpace=wrap;rounded=0;fontStyle=1;fontSize=16;" parent="1" vertex="1">
          <mxGeometry x="287" y="519" width="60" height="30" as="geometry" />
        </mxCell>
        <mxCell id="M1whlqGb-rU47Xm5OJvP-33" value="&lt;b&gt;Model Copy&lt;br&gt;&lt;/b&gt;" style="text;html=1;strokeColor=none;fillColor=none;align=center;verticalAlign=middle;whiteSpace=wrap;rounded=0;" parent="1" vertex="1">
          <mxGeometry x="282" y="410" width="70" height="30" as="geometry" />
        </mxCell>
        <mxCell id="M1whlqGb-rU47Xm5OJvP-34" value="" style="rounded=1;whiteSpace=wrap;html=1;fillColor=none;" parent="1" vertex="1">
          <mxGeometry x="410" y="310" width="120" height="240" as="geometry" />
        </mxCell>
        <mxCell id="M1whlqGb-rU47Xm5OJvP-35" value="" style="shape=image;imageAspect=0;aspect=fixed;verticalLabelPosition=bottom;verticalAlign=top;image=data:image/svg+xml,PHN2ZyB4bWxucz0iaHR0cDovL3d3dy53My5vcmcvMjAwMC9zdmciIHZpZXdCb3g9IjAgMCA2NCA2NCI+PGcgZGF0YS1uYW1lPSJMYXllciAxNSIgaWQ9IkxheWVyXzE1Ij48cGF0aCBkPSJNNTksMTZIMTJWMTNhMSwxLDAsMCwwLTEtMUg1YTEsMSwwLDAsMCwwLDJoNXY0SDdhMSwxLDAsMCwwLTEsMXY4YTEsMSwwLDAsMCwxLDFoM3YySDdhMSwxLDAsMCwwLTEsMXY4YTEsMSwwLDAsMCwxLDFoM3Y3YTEsMSwwLDAsMCwyLDBWNDJoNXYzYTEsMSwwLDAsMCwxLDFoOGExLDEsMCwwLDAsMS0xVjQyaDJ2M2ExLDEsMCwwLDAsMSwxSDQ2YTEsMSwwLDAsMCwxLTFWNDJINTlhMSwxLDAsMCwwLDEtMVYxN0ExLDEsMCwwLDAsNTksMTZaTTgsMjZWMjBoMnY2Wk04LDM4VjMyaDJ2NlptNCwxVjE4aDJWNDBIMTJabTcsM2gydjJIMTlabTYsMkgyM1Y0MmgyWm02LTJoMnYySDMxWm00LDBoMnYySDM1Wm00LDBoMnYySDM5Wm02LDJINDNWNDJoMlptMTMtNEgxNlYxOEg1OFoiLz48cGF0aCBkPSJNMjcsMzhhOC45MSw4LjkxLDAsMCwwLDUuNjQtMmg4LjcyQTguOTEsOC45MSwwLDAsMCw0NywzOGE5LDksMCwwLDAsMC0xOCw4LjkxLDguOTEsMCwwLDAtNS42NCwySDMyLjY0QTguOTEsOC45MSwwLDAsMCwyNywyMGE5LDksMCwwLDAsMCwxOFpNMzguMDYsMjhIMzUuOTRhOSw5LDAsMCwwLTEuNDYtNGg1QTksOSwwLDAsMCwzOC4wNiwyOFptLTIuMTIsMmgyLjEyYTksOSwwLDAsMCwxLjQ2LDRoLTVBOSw5LDAsMCwwLDM1Ljk0LDMwWk01NCwyOWE3LDcsMCwxLDEtNy03QTcsNywwLDAsMSw1NCwyOVpNMjcsMjJhNyw3LDAsMSwxLTcsN0E3LDcsMCwwLDEsMjcsMjJaIi8+PHBhdGggZD0iTTI0LjMsMzAuMjlsLTEuNTUsMS41NGExLDEsMCwwLDAsMCwxLjQyQTYsNiwwLDAsMCwyNywzNWExLDEsMCwwLDAsMS0xVjMxLjgybC4yOS0uMTIsMS41NCwxLjU1YTEsMSwwLDAsMCwxLjQyLDBBNiw2LDAsMCwwLDMzLDI5YTEsMSwwLDAsMC0xLTFIMjkuODJsLS4xMi0uMjksMS41NS0xLjU0YTEsMSwwLDAsMCwwLTEuNDJBNiw2LDAsMCwwLDI3LDIzYTEsMSwwLDAsMC0xLDF2Mi4xOGwtLjI5LjEyLTEuNTQtMS41NWExLDEsMCwwLDAtMS40MiwwQTYsNiwwLDAsMCwyMSwyOWExLDEsMCwwLDAsMSwxaDIuMThaTTI3LDI4YTEsMSwwLDEsMS0xLDFBMSwxLDAsMCwxLDI3LDI4Wm0tMiw0LjQ1Ljc0LS43NS4yOS4xMnYxQTMuODUsMy44NSwwLDAsMSwyNSwzMi40NVpNMzAuNDUsMzFsLS43NS0uNzQuMTItLjI5aDEuMDZBNC4yNCw0LjI0LDAsMCwxLDMwLjQ1LDMxWk0yOSwyNS41NWwtLjc0Ljc1TDI4LDI2LjE4VjI1LjEzQTMuODUsMy44NSwwLDAsMSwyOSwyNS41NVpNMjMuNTUsMjdsLjc1Ljc0LS4xMi4yOUgyMy4xM0EzLjg1LDMuODUsMCwwLDEsMjMuNTUsMjdaIi8+PHBhdGggZD0iTTQyLDMwaDIuMThsLjEyLjI5LTEuNTUsMS41NGExLDEsMCwwLDAsMCwxLjQyQTYsNiwwLDAsMCw0NywzNWExLDEsMCwwLDAsMS0xVjMxLjgybC4yOS0uMTIsMS41NCwxLjU1YTEsMSwwLDAsMCwxLjQyLDBBNiw2LDAsMCwwLDUzLDI5YTEsMSwwLDAsMC0xLTFINDkuODJsLS4xMi0uMjksMS41NS0xLjU0YTEsMSwwLDAsMCwwLTEuNDJBNiw2LDAsMCwwLDQ3LDIzYTEsMSwwLDAsMC0xLDF2Mi4xOGwtLjI5LjEyLTEuNTQtMS41NWExLDEsMCwwLDAtMS40MiwwQTYsNiwwLDAsMCw0MSwyOSwxLDEsMCwwLDAsNDIsMzBabTUtMmExLDEsMCwxLDEtMSwxQTEsMSwwLDAsMSw0NywyOFptLTIsNC40NS43NC0uNzUuMjkuMTJ2MUEzLjg1LDMuODUsMCwwLDEsNDUsMzIuNDVaTTUwLjQ1LDMxbC0uNzUtLjc0LjEyLS4yOWgxLjA2QTQuMjQsNC4yNCwwLDAsMSw1MC40NSwzMVpNNDksMjUuNTVsLS43NC43NUw0OCwyNi4xOFYyNS4xM0EzLjg1LDMuODUsMCwwLDEsNDksMjUuNTVaTTQzLjU1LDI3bC43NS43NC0uMTIuMjloLTFBMy44NSwzLjg1LDAsMCwxLDQzLjU1LDI3WiIvPjwvZz48L3N2Zz4=;" parent="1" vertex="1">
          <mxGeometry x="420" y="440" width="100" height="100" as="geometry" />
        </mxCell>
        <mxCell id="M1whlqGb-rU47Xm5OJvP-36" value="GPU 2" style="text;html=1;strokeColor=none;fillColor=none;align=center;verticalAlign=middle;whiteSpace=wrap;rounded=0;fontStyle=1;fontSize=16;" parent="1" vertex="1">
          <mxGeometry x="440" y="519" width="60" height="30" as="geometry" />
        </mxCell>
        <mxCell id="M1whlqGb-rU47Xm5OJvP-38" value="&lt;b&gt;Model Copy&lt;br&gt;&lt;/b&gt;" style="text;html=1;strokeColor=none;fillColor=none;align=center;verticalAlign=middle;whiteSpace=wrap;rounded=0;" parent="1" vertex="1">
          <mxGeometry x="435" y="410" width="70" height="30" as="geometry" />
        </mxCell>
        <mxCell id="M1whlqGb-rU47Xm5OJvP-39" value="" style="rounded=1;whiteSpace=wrap;html=1;fillColor=none;" parent="1" vertex="1">
          <mxGeometry x="560" y="309" width="120" height="240" as="geometry" />
        </mxCell>
        <mxCell id="M1whlqGb-rU47Xm5OJvP-40" value="" style="shape=image;imageAspect=0;aspect=fixed;verticalLabelPosition=bottom;verticalAlign=top;image=data:image/svg+xml,PHN2ZyB4bWxucz0iaHR0cDovL3d3dy53My5vcmcvMjAwMC9zdmciIHZpZXdCb3g9IjAgMCA2NCA2NCI+PGcgZGF0YS1uYW1lPSJMYXllciAxNSIgaWQ9IkxheWVyXzE1Ij48cGF0aCBkPSJNNTksMTZIMTJWMTNhMSwxLDAsMCwwLTEtMUg1YTEsMSwwLDAsMCwwLDJoNXY0SDdhMSwxLDAsMCwwLTEsMXY4YTEsMSwwLDAsMCwxLDFoM3YySDdhMSwxLDAsMCwwLTEsMXY4YTEsMSwwLDAsMCwxLDFoM3Y3YTEsMSwwLDAsMCwyLDBWNDJoNXYzYTEsMSwwLDAsMCwxLDFoOGExLDEsMCwwLDAsMS0xVjQyaDJ2M2ExLDEsMCwwLDAsMSwxSDQ2YTEsMSwwLDAsMCwxLTFWNDJINTlhMSwxLDAsMCwwLDEtMVYxN0ExLDEsMCwwLDAsNTksMTZaTTgsMjZWMjBoMnY2Wk04LDM4VjMyaDJ2NlptNCwxVjE4aDJWNDBIMTJabTcsM2gydjJIMTlabTYsMkgyM1Y0MmgyWm02LTJoMnYySDMxWm00LDBoMnYySDM1Wm00LDBoMnYySDM5Wm02LDJINDNWNDJoMlptMTMtNEgxNlYxOEg1OFoiLz48cGF0aCBkPSJNMjcsMzhhOC45MSw4LjkxLDAsMCwwLDUuNjQtMmg4LjcyQTguOTEsOC45MSwwLDAsMCw0NywzOGE5LDksMCwwLDAsMC0xOCw4LjkxLDguOTEsMCwwLDAtNS42NCwySDMyLjY0QTguOTEsOC45MSwwLDAsMCwyNywyMGE5LDksMCwwLDAsMCwxOFpNMzguMDYsMjhIMzUuOTRhOSw5LDAsMCwwLTEuNDYtNGg1QTksOSwwLDAsMCwzOC4wNiwyOFptLTIuMTIsMmgyLjEyYTksOSwwLDAsMCwxLjQ2LDRoLTVBOSw5LDAsMCwwLDM1Ljk0LDMwWk01NCwyOWE3LDcsMCwxLDEtNy03QTcsNywwLDAsMSw1NCwyOVpNMjcsMjJhNyw3LDAsMSwxLTcsN0E3LDcsMCwwLDEsMjcsMjJaIi8+PHBhdGggZD0iTTI0LjMsMzAuMjlsLTEuNTUsMS41NGExLDEsMCwwLDAsMCwxLjQyQTYsNiwwLDAsMCwyNywzNWExLDEsMCwwLDAsMS0xVjMxLjgybC4yOS0uMTIsMS41NCwxLjU1YTEsMSwwLDAsMCwxLjQyLDBBNiw2LDAsMCwwLDMzLDI5YTEsMSwwLDAsMC0xLTFIMjkuODJsLS4xMi0uMjksMS41NS0xLjU0YTEsMSwwLDAsMCwwLTEuNDJBNiw2LDAsMCwwLDI3LDIzYTEsMSwwLDAsMC0xLDF2Mi4xOGwtLjI5LjEyLTEuNTQtMS41NWExLDEsMCwwLDAtMS40MiwwQTYsNiwwLDAsMCwyMSwyOWExLDEsMCwwLDAsMSwxaDIuMThaTTI3LDI4YTEsMSwwLDEsMS0xLDFBMSwxLDAsMCwxLDI3LDI4Wm0tMiw0LjQ1Ljc0LS43NS4yOS4xMnYxQTMuODUsMy44NSwwLDAsMSwyNSwzMi40NVpNMzAuNDUsMzFsLS43NS0uNzQuMTItLjI5aDEuMDZBNC4yNCw0LjI0LDAsMCwxLDMwLjQ1LDMxWk0yOSwyNS41NWwtLjc0Ljc1TDI4LDI2LjE4VjI1LjEzQTMuODUsMy44NSwwLDAsMSwyOSwyNS41NVpNMjMuNTUsMjdsLjc1Ljc0LS4xMi4yOUgyMy4xM0EzLjg1LDMuODUsMCwwLDEsMjMuNTUsMjdaIi8+PHBhdGggZD0iTTQyLDMwaDIuMThsLjEyLjI5LTEuNTUsMS41NGExLDEsMCwwLDAsMCwxLjQyQTYsNiwwLDAsMCw0NywzNWExLDEsMCwwLDAsMS0xVjMxLjgybC4yOS0uMTIsMS41NCwxLjU1YTEsMSwwLDAsMCwxLjQyLDBBNiw2LDAsMCwwLDUzLDI5YTEsMSwwLDAsMC0xLTFINDkuODJsLS4xMi0uMjksMS41NS0xLjU0YTEsMSwwLDAsMCwwLTEuNDJBNiw2LDAsMCwwLDQ3LDIzYTEsMSwwLDAsMC0xLDF2Mi4xOGwtLjI5LjEyLTEuNTQtMS41NWExLDEsMCwwLDAtMS40MiwwQTYsNiwwLDAsMCw0MSwyOSwxLDEsMCwwLDAsNDIsMzBabTUtMmExLDEsMCwxLDEtMSwxQTEsMSwwLDAsMSw0NywyOFptLTIsNC40NS43NC0uNzUuMjkuMTJ2MUEzLjg1LDMuODUsMCwwLDEsNDUsMzIuNDVaTTUwLjQ1LDMxbC0uNzUtLjc0LjEyLS4yOWgxLjA2QTQuMjQsNC4yNCwwLDAsMSw1MC40NSwzMVpNNDksMjUuNTVsLS43NC43NUw0OCwyNi4xOFYyNS4xM0EzLjg1LDMuODUsMCwwLDEsNDksMjUuNTVaTTQzLjU1LDI3bC43NS43NC0uMTIuMjloLTFBMy44NSwzLjg1LDAsMCwxLDQzLjU1LDI3WiIvPjwvZz48L3N2Zz4=;" parent="1" vertex="1">
          <mxGeometry x="570" y="439" width="100" height="100" as="geometry" />
        </mxCell>
        <mxCell id="M1whlqGb-rU47Xm5OJvP-41" value="GPU 3" style="text;html=1;strokeColor=none;fillColor=none;align=center;verticalAlign=middle;whiteSpace=wrap;rounded=0;fontStyle=1;fontSize=16;" parent="1" vertex="1">
          <mxGeometry x="590" y="519" width="60" height="30" as="geometry" />
        </mxCell>
        <mxCell id="M1whlqGb-rU47Xm5OJvP-43" value="&lt;b&gt;Model Copy&lt;br&gt;&lt;/b&gt;" style="text;html=1;strokeColor=none;fillColor=none;align=center;verticalAlign=middle;whiteSpace=wrap;rounded=0;" parent="1" vertex="1">
          <mxGeometry x="585" y="409" width="70" height="30" as="geometry" />
        </mxCell>
        <mxCell id="M1whlqGb-rU47Xm5OJvP-44" value="" style="sketch=0;outlineConnect=0;fontColor=#232F3E;gradientColor=none;fillColor=#1A1A1A;strokeColor=none;dashed=0;verticalLabelPosition=bottom;verticalAlign=top;align=center;html=1;fontSize=12;fontStyle=0;aspect=fixed;pointerEvents=1;shape=mxgraph.aws4.datazone_data_projects;" parent="1" vertex="1">
          <mxGeometry x="353" y="640" width="78" height="78" as="geometry" />
        </mxCell>
        <mxCell id="M1whlqGb-rU47Xm5OJvP-45" value="" style="endArrow=classic;html=1;rounded=0;entryX=0.5;entryY=1;entryDx=0;entryDy=0;" parent="1" source="M1whlqGb-rU47Xm5OJvP-44" target="M1whlqGb-rU47Xm5OJvP-26" edge="1">
          <mxGeometry width="50" height="50" relative="1" as="geometry">
            <mxPoint x="110" y="730" as="sourcePoint" />
            <mxPoint x="160" y="680" as="targetPoint" />
          </mxGeometry>
        </mxCell>
        <mxCell id="M1whlqGb-rU47Xm5OJvP-46" value="" style="endArrow=classic;html=1;rounded=0;entryX=0.5;entryY=1;entryDx=0;entryDy=0;" parent="1" source="M1whlqGb-rU47Xm5OJvP-44" target="M1whlqGb-rU47Xm5OJvP-29" edge="1">
          <mxGeometry width="50" height="50" relative="1" as="geometry">
            <mxPoint x="560" y="670" as="sourcePoint" />
            <mxPoint x="610" y="620" as="targetPoint" />
          </mxGeometry>
        </mxCell>
        <mxCell id="M1whlqGb-rU47Xm5OJvP-47" value="" style="endArrow=classic;html=1;rounded=0;entryX=0.5;entryY=1;entryDx=0;entryDy=0;" parent="1" source="M1whlqGb-rU47Xm5OJvP-44" target="M1whlqGb-rU47Xm5OJvP-34" edge="1">
          <mxGeometry width="50" height="50" relative="1" as="geometry">
            <mxPoint x="520" y="690" as="sourcePoint" />
            <mxPoint x="570" y="640" as="targetPoint" />
          </mxGeometry>
        </mxCell>
        <mxCell id="M1whlqGb-rU47Xm5OJvP-48" value="" style="endArrow=classic;html=1;rounded=0;entryX=0.5;entryY=1;entryDx=0;entryDy=0;" parent="1" source="M1whlqGb-rU47Xm5OJvP-44" target="M1whlqGb-rU47Xm5OJvP-39" edge="1">
          <mxGeometry width="50" height="50" relative="1" as="geometry">
            <mxPoint x="520" y="690" as="sourcePoint" />
            <mxPoint x="570" y="640" as="targetPoint" />
          </mxGeometry>
        </mxCell>
        <mxCell id="M1whlqGb-rU47Xm5OJvP-49" value="&lt;b&gt;Training data&lt;br&gt;&lt;/b&gt;" style="text;html=1;strokeColor=none;fillColor=none;align=center;verticalAlign=middle;whiteSpace=wrap;rounded=0;" parent="1" vertex="1">
          <mxGeometry x="356" y="730" width="83" height="30" as="geometry" />
        </mxCell>
        <mxCell id="dhctoA4mqNvxFnu4bVvS-2" value="" style="outlineConnect=0;dashed=0;verticalLabelPosition=bottom;verticalAlign=top;align=center;html=1;shape=mxgraph.aws3.android;fillColor=#CFCFCF;gradientColor=none;aspect=fixed;" parent="1" vertex="1">
          <mxGeometry x="140" y="324.72" width="60" height="68.57" as="geometry" />
        </mxCell>
        <mxCell id="dhctoA4mqNvxFnu4bVvS-3" value="" style="outlineConnect=0;dashed=0;verticalLabelPosition=bottom;verticalAlign=top;align=center;html=1;shape=mxgraph.aws3.android;fillColor=#CFCFCF;gradientColor=none;aspect=fixed;" parent="1" vertex="1">
          <mxGeometry x="287" y="324.72" width="60" height="68.57" as="geometry" />
        </mxCell>
        <mxCell id="dhctoA4mqNvxFnu4bVvS-4" value="" style="outlineConnect=0;dashed=0;verticalLabelPosition=bottom;verticalAlign=top;align=center;html=1;shape=mxgraph.aws3.android;fillColor=#CFCFCF;gradientColor=none;aspect=fixed;" parent="1" vertex="1">
          <mxGeometry x="440" y="324.72" width="60" height="68.57" as="geometry" />
        </mxCell>
        <mxCell id="dhctoA4mqNvxFnu4bVvS-5" value="" style="outlineConnect=0;dashed=0;verticalLabelPosition=bottom;verticalAlign=top;align=center;html=1;shape=mxgraph.aws3.android;fillColor=#CFCFCF;gradientColor=none;aspect=fixed;" parent="1" vertex="1">
          <mxGeometry x="590" y="324.72" width="60" height="68.57" as="geometry" />
        </mxCell>
      </root>
    </mxGraphModel>
  </diagram>
</mxfile>
